<mxfile host="app.diagrams.net" modified="2023-10-31T02:33:52.369Z" agent="Mozilla/5.0 (Windows NT 10.0; Win64; x64) AppleWebKit/537.36 (KHTML, like Gecko) Chrome/118.0.0.0 Safari/537.36 Edg/118.0.2088.76" version="21.7.5" etag="LpB72H-RtYOoa5V5yx-7" type="github">
  <diagram name="第 1 页" id="1RWALu4vhwPFHA7ueOoz">
    <mxGraphModel>
      <root>
        <mxCell id="0" />
        <mxCell id="1" parent="0" />
      </root>
    </mxGraphModel>
  </diagram>
</mxfile>
